<?xml version="1.0" encoding="utf-8"?>
<!-- Svg Vector Icons : http://www.onlinewebfonts.com/icon -->
<!DOCTYPE svg PUBLIC "-//W3C//DTD SVG 1.1//EN" "http://www.w3.org/Graphics/SVG/1.1/DTD/svg11.dtd">
<svg version="1.1" xmlns="http://www.w3.org/2000/svg" xmlns:xlink="http://www.w3.org/1999/xlink" 
x="0px" y="0px" viewBox="0 0 1000 1000" enable-background="new 0 0 1000 1000" 
xml:space="preserve">
<metadata> Svg Vector Icons : http://www.onlinewebfonts.com/icon </metadata>
<g><g stroke="none" fill="#000000" transform="translate(0.000000,511.000000) scale(0.100000,-0.100000)">



<path d="M3435.4,2067.9c-595.1-39-1128.6-143.6-1528.7-301.6c-471.9-186.7-761.3-488.4-820.8-857.7c-28.7-172.4-26.7-4368.6,2.1-4545.1c28.7-184.7,100.5-328.3,227.8-465.8c324.2-344.7,931.6-562.2,1863.2-664.8c326.3-34.9,1106-28.7,1446.6,10.3c1231.2,147.7,1906.3,527.3,2000.6,1120.4c26.7,176.5,28.7,4374.7,0,4545.1c-84.1,515-558.1,851.6-1467.1,1042.4C4674.8,2053.6,3954.5,2102.8,3435.4,2067.9z M4820.5,1464.7c488.4-73.9,816.7-186.7,882.3-303.7c26.7-51.3,26.7-63.6,0-112.9c-65.7-117-416.5-238-890.5-305.7c-309.8-43.1-1257.9-61.6-1614.9-30.8c-732.5,65.7-1208.6,219.6-1208.6,391.9c0,153.9,424.8,305.7,1056.8,377.5C3404.6,1522.1,4508.6,1511.9,4820.5,1464.7z"/>
<path d="M6975,327.9v-449.4l221.6-12.3c467.8-22.6,683.3-160.1,790-496.6c41-129.3,45.1-186.7,45.1-564.3c0-377.6-4.1-435-45.1-564.3c-106.7-336.5-322.2-474-790-496.6l-221.6-12.3v-447.3v-449.4l180.6,12.3c816.7,53.4,1294.8,318,1563.6,859.8c287.3,580.7,287.3,1614.9,0,2195.6C8450.4,444.8,7978.4,705.4,7155.6,765L6975,777.3V327.9z"/>

</g></g>
</svg>