<?xml version="1.0" standalone="no"?>
<!DOCTYPE svg PUBLIC "-//W3C//DTD SVG 20010904//EN"
 "http://www.w3.org/TR/2001/REC-SVG-20010904/DTD/svg10.dtd">
<svg version="1.0" xmlns="http://www.w3.org/2000/svg"
 width="512.000000pt" height="300.000000pt" viewBox="0 0 512.000000 300.000000"
 preserveAspectRatio="xMidYMid meet">

<g transform="translate(0.000000,400.000000) scale(0.100000,-0.100000)"
fill="#000000" stroke="none">
<path d="M1265 3940 c-609 -54 -1106 -497 -1237 -1103 -31 -146 -31 -408 0
-554 121 -563 552 -981 1122 -1090 89 -17 183 -18 1410 -18 1227 0 1321 1
1410 18 570 109 1001 527 1122 1090 31 146 31 408 0 554 -106 493 -451 880
-925 1038 -218 72 -140 69 -1547 71 -696 1 -1305 -2 -1355 -6z m2735 -238
c105 -28 171 -52 253 -93 368 -184 615 -548 645 -948 45 -602 -332 -1110 -923
-1247 -76 -18 -150 -19 -1415 -19 -1265 0 -1339 1 -1415 19 -516 119 -885 538
-923 1045 -37 496 212 935 653 1154 106 52 222 87 365 110 14 3 621 4 1350 3
l1325 -2 85 -22z"/>
<path d="M1208 3504 c-258 -46 -506 -220 -645 -449 -42 -70 -96 -201 -112
-270 -29 -125 -29 -325 0 -450 16 -69 70 -200 112 -270 125 -206 350 -375 582
-436 122 -31 304 -36 426 -11 405 84 703 396 764 800 19 121 19 163 0 284 -81
538 -589 900 -1127 802z"/>
<path d="M2829 3089 c-107 -16 -209 -100 -248 -203 -20 -53 -21 -76 -21 -326
0 -251 1 -273 21 -327 82 -219 372 -275 532 -104 80 86 87 120 87 431 0 251
-1 273 -21 327 -52 138 -202 225 -350 202z m85 -219 c8 0 25 -12 40 -26 l26
-27 0 -257 0 -257 -25 -26 c-28 -27 -61 -37 -100 -29 -13 2 -36 16 -50 29
l-25 26 0 257 0 257 26 26 c25 26 57 37 82 31 8 -2 19 -4 26 -4z"/>
<path d="M3494 3090 c-16 -5 -41 -21 -55 -36 l-24 -26 0 -470 0 -470 33 -29
c45 -40 99 -40 144 0 l33 29 3 181 3 181 55 0 c96 0 154 41 154 110 0 69 -58
110 -155 110 l-55 0 0 105 0 105 121 0 c140 0 170 12 190 79 14 46 0 83 -44
115 -26 19 -43 21 -200 23 -95 1 -186 -2 -203 -7z"/>
<path d="M4134 3090 c-16 -5 -41 -21 -55 -36 l-24 -26 0 -470 0 -470 33 -29
c45 -40 99 -40 144 0 l33 29 3 181 3 181 55 0 c96 0 154 41 154 110 0 69 -58
110 -155 110 l-55 0 0 105 0 105 121 0 c140 0 170 12 190 79 14 46 0 83 -44
115 -26 19 -43 21 -200 23 -95 1 -186 -2 -203 -7z"/>
</g>
</svg>
